<svg xmlns="http://www.w3.org/2000/svg" width="219.028" height="100.934" viewBox="0 0 219.028 100.934">
  <g id="Group_2156" data-name="Group 2156" transform="translate(-1350 -639)">
    <g id="圖層_2" data-name="圖層 2" transform="translate(1350 698.809)">
      <g id="圖層_1" data-name="圖層 1" transform="translate(0 0)">
        <path id="Path_876" data-name="Path 876" d="M0,1.56H13.1L24.865,32.636,35.689,1.56h13.4v2H45.817a3.636,3.636,0,0,0-2.33.527,2.193,2.193,0,0,0-.6,1.756V36.975a1.656,1.656,0,0,0,.717,1.439,4.491,4.491,0,0,0,2.473.527h3.005v1.972H31.076v-2h3.369a3.443,3.443,0,0,0,2.109-.527,1.7,1.7,0,0,0,.7-1.4V3.558l-13,37.355H22.461l-14-37.2v28.6A8.789,8.789,0,0,0,9.1,36.137a4.529,4.529,0,0,0,1.819,1.94,9.471,9.471,0,0,0,3.928.838v2H0v-2q3.649-.237,4.951-1.582c.865-.891,1.3-2.457,1.3-4.714V5.483a1.74,1.74,0,0,0-.612-1.476,4,4,0,0,0-2.288-.464H0Z" transform="translate(0 -0.737)" fill="#cc9a06"/>
        <path id="Path_877" data-name="Path 877" d="M99.66,1.56h18.148v2h-3.116a4.266,4.266,0,0,0-2.636.527,3.078,3.078,0,0,0-.527,2.2V36.063a3.341,3.341,0,0,0,.48,2.236,3.339,3.339,0,0,0,2.315.612h3.485v2H99.66v-2h3.432a3.516,3.516,0,0,0,2.341-.527,3.458,3.458,0,0,0,.527-2.315V6.274c0-1.139-.158-1.84-.48-2.109a4.519,4.519,0,0,0-2.736-.612H99.66Z" transform="translate(-47.115 -0.737)" fill="#cc9a06"/>
        <path id="Path_878" data-name="Path 878" d="M142.15,1.56h9.411l23.726,30.918V10.1a7.018,7.018,0,0,0-1.545-5,5.683,5.683,0,0,0-4.218-1.545v-2h13.782v2a6.654,6.654,0,0,0-3.163.585,4.835,4.835,0,0,0-1.814,2.109,7.408,7.408,0,0,0-.775,3.38V40.913h-2.5L150.507,8.725V32.451a6.435,6.435,0,0,0,1.624,4.808,7.132,7.132,0,0,0,5.025,1.634v2.019H142.15v-2a6.2,6.2,0,0,0,4.471-1.845,5.953,5.953,0,0,0,1.65-4.265V6.158L147.8,5.63a8.368,8.368,0,0,0-1.888-1.714,4.5,4.5,0,0,0-1.988-.374H142.15Z" transform="translate(-67.202 -0.737)" fill="#cc9a06"/>
        <path id="Path_879" data-name="Path 879" d="M245.643,0a17.8,17.8,0,0,1,9.327,2.636,18.217,18.217,0,0,1,6.807,7.3,22.446,22.446,0,0,1,2.478,10.577,22.566,22.566,0,0,1-2.489,10.592,18.48,18.48,0,0,1-6.8,7.381,17.278,17.278,0,0,1-9.169,2.636,16.455,16.455,0,0,1-8.884-2.594,18.7,18.7,0,0,1-6.664-7.424A22.84,22.84,0,0,1,227.738,20.4a22.344,22.344,0,0,1,2.431-10.471,18.581,18.581,0,0,1,6.67-7.292A16.345,16.345,0,0,1,245.643,0Zm.427,2.051a10.018,10.018,0,0,0-8.41,4.308q-3.216,4.308-3.221,14.051,0,10.545,3.3,14.6A10.431,10.431,0,0,0,251.9,37.223a12.286,12.286,0,0,0,4.107-5.8,29.726,29.726,0,0,0,1.529-10.487A33.956,33.956,0,0,0,256.1,9.865a11.929,11.929,0,0,0-4.1-5.9,9.933,9.933,0,0,0-5.931-1.914Z" transform="translate(-107.663 0)" fill="#cc9a06"/>
        <path id="Path_880" data-name="Path 880" d="M305.15,1.56h20.325q5.91,0,9.163,2.689a8.7,8.7,0,0,1,3.264,7.033,8.493,8.493,0,0,1-1.292,4.645,9.063,9.063,0,0,1-3.728,3.264,23.43,23.43,0,0,1-7.645,1.74,19.308,19.308,0,0,1,5.225,2.035,7.5,7.5,0,0,1,2.3,2.583A30.343,30.343,0,0,1,334.749,32a14.4,14.4,0,0,0,1.714,4.745,1.9,1.9,0,0,0,1.492.981c.527,0,1.055-.4,1.529-1.207a10.158,10.158,0,0,0,.865-4.271h1.809q-.506,9.09-6.68,9.09a5.8,5.8,0,0,1-3.364-.986,5.947,5.947,0,0,1-2.141-2.9,41.343,41.343,0,0,1-1.25-7.529,13.8,13.8,0,0,0-1.265-5.03,6.132,6.132,0,0,0-2.7-2.394,9.8,9.8,0,0,0-4.4-.928h-3.216V37.028a1.671,1.671,0,0,0,.527,1.387,3.248,3.248,0,0,0,2,.527h3.775v1.972h-18.3v-2H309a2.9,2.9,0,0,0,1.877-.527,1.719,1.719,0,0,0,.6-1.387V5.578a1.856,1.856,0,0,0-.612-1.513A2.9,2.9,0,0,0,309,3.537H305.15Zm11.995,18.095h4.661a13.092,13.092,0,0,0,7.329-1.766q2.647-1.766,2.636-6.285a10.268,10.268,0,0,0-1-4.914,5.273,5.273,0,0,0-2.636-2.468q-1.629-.664-6.385-.664A9.907,9.907,0,0,0,317.867,4a1.582,1.582,0,0,0-.722,1.487Z" transform="translate(-144.262 -0.737)" fill="#cc9a06"/>
        <path id="Path_881" data-name="Path 881" d="M381,1.56h18.148v2h-3.121a4.265,4.265,0,0,0-2.636.527,3.078,3.078,0,0,0-.527,2.2V36.063a3.341,3.341,0,0,0,.48,2.236,3.33,3.33,0,0,0,2.315.612h3.485v2H381v-2h3.432a3.516,3.516,0,0,0,2.341-.527,3.458,3.458,0,0,0,.527-2.315V6.274c0-1.139-.158-1.84-.48-2.109a4.519,4.519,0,0,0-2.736-.612H381Z" transform="translate(-180.12 -0.737)" fill="#cc9a06"/>
      </g>
    </g>
    <text id="堅持" transform="translate(1428 676)" fill="#cc9a06" font-size="32" font-family="NotoSansTC-Medium, Noto Sans TC" font-weight="500"><tspan x="0" y="0">堅持</tspan></text>
  </g>
</svg>
