<svg xmlns="http://www.w3.org/2000/svg" viewBox="0 0 254 118"><defs><style>.cls-1{fill:#040000;}.cls-2{fill:none;stroke:#707070;}</style></defs><g id="圖層_2" data-name="圖層 2"><g id="圖層_1-2" data-name="圖層 1"><g id="card"><path id="ticket" class="cls-1" d="M254,118H0V0H254V11a6,6,0,0,0,0,12v5a6,6,0,0,0,0,12v5a6,6,0,0,0,0,12v5a6,6,0,0,0,0,12v5a6,6,0,0,0,0,12v5a6,6,0,0,0,0,12Z"/><line id="Line_169" data-name="Line 169" class="cls-2" x1="29.5" y1="9" x2="29.5" y2="109"/><line id="Line_170" data-name="Line 170" class="cls-2" x1="229.5" y1="9" x2="229.5" y2="109"/></g></g></g></svg>