<svg xmlns="http://www.w3.org/2000/svg" viewBox="0 0 415.41 397.4"><defs><style>.cls-1{fill:#fff;}</style></defs><g id="圖層_2" data-name="圖層 2"><g id="圖層_1-2" data-name="圖層 1"><path class="cls-1" d="M160.8,54.62h25.33l22.74,60.08,20.92-60.08H255.7v3.86h-6.33c-2.23,0-3.73.32-4.5,1a4.24,4.24,0,0,0-1.15,3.39v60.23a3.19,3.19,0,0,0,1.38,2.78c.93.65,2.52,1,4.79,1h5.81v3.86H220.88v-3.86h6.51a6.68,6.68,0,0,0,4.13-1,3.32,3.32,0,0,0,1.34-2.71V58.48L207.71,130.7h-3.47L177.15,58.79v55.29c0,3.3.42,5.76,1.24,7.38a8.83,8.83,0,0,0,3.52,3.76q2.29,1.31,7.59,1.62v3.86H160.8v-3.86q7-.47,9.56-3t2.52-9.1V62.23a3.35,3.35,0,0,0-1.18-2.85c-.79-.6-2.26-.9-4.42-.9H160.8Z"/><path class="cls-1" d="M0,232.3H24.85l22.31,58.94L67.69,232.3H93.1v3.79H86.9c-2.19,0-3.66.32-4.42.95a4.17,4.17,0,0,0-1.13,3.34v59.09a3.12,3.12,0,0,0,1.36,2.72c.91.64,2.47,1,4.69,1h5.7v3.79H58.94v-3.79h6.39a6.53,6.53,0,0,0,4-1,3.23,3.23,0,0,0,1.32-2.65V236.09L46,306.94h-3.4L16.05,236.39v54.25q0,4.85,1.21,7.24a8.65,8.65,0,0,0,3.45,3.68q2.25,1.29,7.45,1.59v3.79H0v-3.79q6.92-.45,9.39-3c1.64-1.68,2.47-4.66,2.47-8.93V239.77A3.3,3.3,0,0,0,10.7,237c-.78-.59-2.22-.88-4.34-.88H0Z"/><path class="cls-1" d="M99.66,232.3h34.42v3.79h-5.91c-2.62,0-4.28.32-5,1s-1,2-1,4.16v56.52c0,2.26.3,3.67.91,4.24.81.77,2.27,1.16,4.39,1.16h6.61v3.79H99.66v-3.79h6.51c2.29,0,3.77-.34,4.44-1s1-2.13,1-4.39V241.23c0-2.15-.3-3.48-.91-4-.94-.78-2.67-1.16-5.19-1.16H99.66Z"/><path class="cls-1" d="M142.15,232.3H160l45,58.64V248.5q0-6.41-2.93-9.49c-1.78-1.88-4.44-2.86-8-2.92V232.3h26.14v3.79a12.62,12.62,0,0,0-6,1.11,9.14,9.14,0,0,0-3.44,4,14.11,14.11,0,0,0-1.47,6.41v59.3h-4.75L158,245.89v45q0,6.1,3.08,9.12t9.53,3.1v3.79H142.15v-3.79a11.76,11.76,0,0,0,8.48-3.5,11.31,11.31,0,0,0,3.13-8.09V241l-.89-1a16,16,0,0,0-3.58-3.26,8.69,8.69,0,0,0-3.77-.7h-3.37Z"/><path class="cls-1" d="M261.7,230.74a33.67,33.67,0,0,1,17.69,5,34.52,34.52,0,0,1,12.91,13.87,45.5,45.5,0,0,1,0,40.2,35.12,35.12,0,0,1-12.89,14,32.76,32.76,0,0,1-17.39,5,31.21,31.21,0,0,1-16.85-4.92,35.4,35.4,0,0,1-12.64-14.08,43.26,43.26,0,0,1-4.77-20.31,42.37,42.37,0,0,1,4.61-19.85A35.24,35.24,0,0,1,245,235.76,31,31,0,0,1,261.7,230.74Zm.81,3.88a19,19,0,0,0-15.95,8.18q-6.1,8.17-6.11,26.64,0,20,6.26,27.71t15.49,7.67a19.12,19.12,0,0,0,11.36-3.49q4.89-3.48,7.79-11.05t2.9-19.88q0-13.42-2.72-21t-7.77-11.17A18.78,18.78,0,0,0,262.51,234.62Z"/><path class="cls-1" d="M305.15,232.3H343.7q11.21,0,17.38,5.1a16.5,16.5,0,0,1,6.19,13.37,16.13,16.13,0,0,1-2.45,8.81,17.16,17.16,0,0,1-7.07,6.15q-4.61,2.29-14.5,3.31,7.19,2,9.91,3.86a14.18,14.18,0,0,1,4.36,4.89c1.08,2,2.35,6.08,3.77,12.24q1.53,6.62,3.25,9a3.6,3.6,0,0,0,2.83,1.87c1,0,2-.76,2.9-2.3s1.44-4.23,1.64-8.1h3.43q-1,17.16-12.67,17.16a10.91,10.91,0,0,1-6.38-1.87,11.19,11.19,0,0,1-4.06-5.5q-1.07-2.71-2.37-14.28-.76-6.71-2.4-9.53a11.57,11.57,0,0,0-5.12-4.54,18.59,18.59,0,0,0-8.33-1.72H327.9v29.32a3.15,3.15,0,0,0,1,2.62,6.09,6.09,0,0,0,3.79,1h7.16v3.79H305.15v-3.79h7.31a5.45,5.45,0,0,0,3.56-1,3.24,3.24,0,0,0,1.14-2.62V239.92A3.53,3.53,0,0,0,316,237a5.56,5.56,0,0,0-3.54-.95h-7.31Zm22.75,34.32h8.84q8.88,0,13.9-3.35t5-11.92q0-5.9-1.89-9.32a10,10,0,0,0-5-4.68q-3.09-1.26-12.11-1.26c-4,0-6.43.27-7.37.83a3,3,0,0,0-1.42,2.84Z"/><path class="cls-1" d="M381,232.3h34.42v3.79H409.5c-2.62,0-4.28.32-5,1s-1,2-1,4.16v56.52c0,2.26.3,3.67.91,4.24.8.77,2.27,1.16,4.39,1.16h6.61v3.79H381v-3.79h6.51c2.29,0,3.77-.34,4.44-1s1-2.13,1-4.39V241.23c0-2.15-.3-3.48-.91-4-.94-.78-2.67-1.16-5.19-1.16H381Z"/><path class="cls-1" d="M135.15,385.48l2.53.74q-3,11.19-13.4,11.18a16.47,16.47,0,0,1-12.43-5Q107,387.35,107,379q0-9.66,5.3-15a17,17,0,0,1,12.46-5.31,13.27,13.27,0,0,1,8.89,3c2.33,2,3.5,4.17,3.5,6.58a5.09,5.09,0,0,1-1.3,3.6,4.07,4.07,0,0,1-3.1,1.43,4,4,0,0,1-3-1.21,3.93,3.93,0,0,1-1.21-2.91,4.92,4.92,0,0,1,1.33-3.26,2.14,2.14,0,0,0,.62-1.17,2.88,2.88,0,0,0-1.52-2.19,7.08,7.08,0,0,0-4.13-1.07,8.3,8.3,0,0,0-7.21,3.46q-3.5,5-3.5,13.24,0,7.81,3.11,11.84a9.63,9.63,0,0,0,8,4Q131.91,394.05,135.15,385.48Z"/><path class="cls-1" d="M159.89,358.72A16.33,16.33,0,0,1,172.26,364q5,5.33,5,14A21.53,21.53,0,0,1,175,388.27a16.69,16.69,0,0,1-6.39,6.68,17.28,17.28,0,0,1-8.94,2.45,15.7,15.7,0,0,1-12-5.37q-4.92-5.38-4.92-13.95t4.94-14A15.94,15.94,0,0,1,159.89,358.72Zm0,2.76a8.47,8.47,0,0,0-7.17,4q-2.81,3.94-2.81,12.48,0,8.7,2.79,12.7a8.42,8.42,0,0,0,7.19,4,8.64,8.64,0,0,0,7.38-4q2.82-4,2.82-13.13,0-8.44-2.78-12.23A8.77,8.77,0,0,0,159.89,361.48Z"/><path class="cls-1" d="M195,359.81h9.12v3.39H195v26.64a3.25,3.25,0,0,0,.86,2.58,5,5,0,0,0,3.27,1h5v2.92H181.78v-2.92h3.08a4.46,4.46,0,0,0,2.88-.7,2.71,2.71,0,0,0,.82-2.18V363.2h-6.31v-3.39h6.31V357q0-9.65,4-14.72a12.18,12.18,0,0,1,9.92-5.07,10.12,10.12,0,0,1,6.86,2.14,7.06,7.06,0,0,1,2.47,5.61,5.11,5.11,0,0,1-1.19,3.57,3.9,3.9,0,0,1-3,1.3,3.69,3.69,0,0,1-2.7-1.05,3.54,3.54,0,0,1-1.08-2.65,3.72,3.72,0,0,1,1.41-3c.75-.62,1.13-1.09,1.13-1.4a1.52,1.52,0,0,0-.88-1.21,5,5,0,0,0-2.62-.54A6.81,6.81,0,0,0,197.3,343Q195,345.9,195,351.7Z"/><path class="cls-1" d="M221.6,359.81h9.12v3.39H221.6v26.64a3.28,3.28,0,0,0,.86,2.58,5,5,0,0,0,3.27,1h5v2.92H208.35v-2.92h3.08a4.46,4.46,0,0,0,2.88-.7,2.71,2.71,0,0,0,.82-2.18V363.2h-6.31v-3.39h6.31V357q0-9.65,4-14.72a12.2,12.2,0,0,1,9.92-5.07,10.1,10.1,0,0,1,6.86,2.14,7.06,7.06,0,0,1,2.47,5.61,5.07,5.07,0,0,1-1.19,3.57,3.9,3.9,0,0,1-3,1.3,3.69,3.69,0,0,1-2.7-1.05,3.54,3.54,0,0,1-1.08-2.65,3.72,3.72,0,0,1,1.41-3c.75-.62,1.13-1.09,1.13-1.4a1.5,1.5,0,0,0-.88-1.21,5,5,0,0,0-2.62-.54,6.82,6.82,0,0,0-5.57,2.94q-2.26,2.94-2.27,8.74Z"/><path class="cls-1" d="M270,378.31H243.81q.19,8.34,3.11,11.77a10.83,10.83,0,0,0,8.54,3.86q7.64,0,12.27-8.69l2.53,1.09q-5.68,11.07-16.44,11.06a16.28,16.28,0,0,1-12.33-5.3q-5-5.3-5-13.55,0-8.9,4.93-14.36a15.69,15.69,0,0,1,12.14-5.47,15.48,15.48,0,0,1,9.15,2.72,16.5,16.5,0,0,1,5.81,7.83A26.73,26.73,0,0,1,270,378.31Zm-26.14-2.76h15.82a2.66,2.66,0,0,0,2.18-1,5.2,5.2,0,0,0,.78-3.25,10.58,10.58,0,0,0-2.67-7.29,8.18,8.18,0,0,0-6.29-3,8.44,8.44,0,0,0-6.88,3.63Q243.93,368.29,243.81,375.55Z"/><path class="cls-1" d="M309.84,378.31H283.7q.19,8.34,3.12,11.77a10.81,10.81,0,0,0,8.53,3.86q7.63,0,12.27-8.69l2.54,1.09q-5.7,11.07-16.44,11.06a16.28,16.28,0,0,1-12.34-5.3q-5-5.3-5-13.55,0-8.9,4.93-14.36a15.67,15.67,0,0,1,12.13-5.47,15.52,15.52,0,0,1,9.16,2.72,16.48,16.48,0,0,1,5.8,7.83A26.73,26.73,0,0,1,309.84,378.31Zm-26.14-2.76h15.82a2.64,2.64,0,0,0,2.18-1,5.2,5.2,0,0,0,.78-3.25,10.58,10.58,0,0,0-2.67-7.29,8.16,8.16,0,0,0-6.29-3,8.47,8.47,0,0,0-6.88,3.63Q283.82,368.29,283.7,375.55Z"/><path class="cls-1" d="M208.76,186.27,128.1,139.71V46.57L208.76,0l80.66,46.57v93.14ZM133.1,136.82l75.66,43.68,75.66-43.68V49.46L208.76,5.77,133.1,49.46Z"/></g></g></svg>