<svg xmlns="http://www.w3.org/2000/svg" viewBox="0 0 415.41 78.07"><defs><style>.cls-1{fill:#fff;}</style></defs><g id="圖層_2" data-name="圖層 2"><g id="圖層_1-2" data-name="圖層 1"><path class="cls-1" d="M0,1.56H24.85L47.16,60.5,67.69,1.56H93.1V5.35H86.9c-2.19,0-3.66.32-4.42,1a4.16,4.16,0,0,0-1.13,3.33V68.73a3.14,3.14,0,0,0,1.36,2.73c.91.63,2.47,1,4.69,1h5.7V76.2H58.94V72.41h6.39a6.53,6.53,0,0,0,4-1,3.22,3.22,0,0,0,1.32-2.65V5.35L46,76.2h-3.4L16.05,5.65V59.9q0,4.85,1.21,7.24a8.59,8.59,0,0,0,3.45,3.68q2.25,1.29,7.45,1.59V76.2H0V72.41q6.92-.45,9.39-3c1.64-1.69,2.47-4.66,2.47-8.94V9a3.3,3.3,0,0,0-1.16-2.8c-.78-.59-2.22-.88-4.34-.88H0Z"/><path class="cls-1" d="M99.66,1.56h34.42V5.35h-5.91c-2.62,0-4.28.33-5,1s-1,2.05-1,4.17V67c0,2.26.3,3.67.91,4.24.81.78,2.27,1.16,4.39,1.16h6.61V76.2H99.66V72.41h6.51c2.29,0,3.77-.33,4.44-1s1-2.13,1-4.39V10.5c0-2.16-.3-3.49-.91-4q-1.41-1.15-5.19-1.16H99.66Z"/><path class="cls-1" d="M142.15,1.56H160L205,60.2V17.76q0-6.41-2.93-9.48c-1.78-1.89-4.44-2.86-8-2.93V1.56h26.14V5.35a12.62,12.62,0,0,0-6,1.11,9.17,9.17,0,0,0-3.44,4,14.05,14.05,0,0,0-1.47,6.41V76.2h-4.75L158,15.15v45q0,6.12,3.08,9.12t9.53,3.1V76.2H142.15V72.41a11.76,11.76,0,0,0,8.48-3.5,11.29,11.29,0,0,0,3.13-8.09V10.28l-.89-1a15.87,15.87,0,0,0-3.58-3.25,8.54,8.54,0,0,0-3.77-.71h-3.37Z"/><path class="cls-1" d="M261.7,0a33.76,33.76,0,0,1,17.69,5A34.55,34.55,0,0,1,292.3,18.85,42.57,42.57,0,0,1,297,38.91,42.8,42.8,0,0,1,292.28,59a35.05,35.05,0,0,1-12.89,14,32.77,32.77,0,0,1-17.39,5,31.21,31.21,0,0,1-16.85-4.92,35.47,35.47,0,0,1-12.64-14.08,43.32,43.32,0,0,1-4.77-20.31,42.38,42.38,0,0,1,4.61-19.86A35.24,35.24,0,0,1,245,5,31,31,0,0,1,261.7,0Zm.81,3.89a19,19,0,0,0-15.95,8.17q-6.1,8.17-6.11,26.65,0,20,6.26,27.7t15.49,7.67a19.12,19.12,0,0,0,11.36-3.48q4.89-3.48,7.79-11t2.9-19.89q0-13.42-2.72-21T273.76,7.52A18.84,18.84,0,0,0,262.51,3.89Z"/><path class="cls-1" d="M305.15,1.56H343.7q11.21,0,17.38,5.1A16.51,16.51,0,0,1,367.27,20a16.11,16.11,0,0,1-2.45,8.81A17.19,17.19,0,0,1,357.75,35q-4.61,2.3-14.5,3.3,7.19,2,9.91,3.86a14.22,14.22,0,0,1,4.36,4.9c1.08,2,2.35,6.08,3.77,12.23q1.53,6.62,3.25,9a3.61,3.61,0,0,0,2.83,1.86c1,0,2-.76,2.9-2.29s1.44-4.23,1.64-8.1h3.43Q374.38,77,362.67,77a11,11,0,0,1-6.38-1.87,11.28,11.28,0,0,1-4.06-5.5q-1.07-2.73-2.37-14.28-.76-6.72-2.4-9.54a11.63,11.63,0,0,0-5.12-4.54A18.59,18.59,0,0,0,334,39.51H327.9V68.83a3.17,3.17,0,0,0,1,2.63,6.16,6.16,0,0,0,3.79,1h7.16V76.2H305.15V72.41h7.31a5.51,5.51,0,0,0,3.56-1,3.26,3.26,0,0,0,1.14-2.63V9.18A3.52,3.52,0,0,0,316,6.31a5.5,5.5,0,0,0-3.54-1h-7.31ZM327.9,35.88h8.84q8.88,0,13.9-3.35t5-11.92c0-3.93-.63-7-1.89-9.32a10,10,0,0,0-5-4.68q-3.09-1.26-12.11-1.26-6,0-7.37.83A3,3,0,0,0,327.9,9Z"/><path class="cls-1" d="M381,1.56h34.42V5.35H409.5c-2.62,0-4.28.33-5,1s-1,2.05-1,4.17V67c0,2.26.3,3.67.91,4.24.8.78,2.27,1.16,4.39,1.16h6.61V76.2H381V72.41h6.51c2.29,0,3.77-.33,4.44-1s1-2.13,1-4.39V10.5c0-2.16-.3-3.49-.91-4q-1.41-1.15-5.19-1.16H381Z"/></g></g></svg>