<svg xmlns="http://www.w3.org/2000/svg" viewBox="0 0 57.53 66.44"><defs><style>.cls-1{fill:#fff;}</style></defs><g id="圖層_2" data-name="圖層 2"><g id="圖層_2-2" data-name="圖層 2"><path class="cls-1" d="M11.73,19.53h9L28.8,40.88l7.44-21.35h9.2V20.9H43.19a2.58,2.58,0,0,0-1.59.35,1.5,1.5,0,0,0-.42,1.21v21.4a1.13,1.13,0,0,0,.5,1,3,3,0,0,0,1.7.35h2.06v1.37H33.07V45.19h2.31a2.38,2.38,0,0,0,1.47-.37,1.17,1.17,0,0,0,.48-1v-23L28.39,46.56H27.16L17.54,21V40.66A5.92,5.92,0,0,0,18,43.28a3.12,3.12,0,0,0,1.25,1.34,6.47,6.47,0,0,0,2.69.57v1.37H11.73V45.19a5.28,5.28,0,0,0,3.4-1.08A4.6,4.6,0,0,0,16,40.88V22.24a1.22,1.22,0,0,0-.42-1A2.76,2.76,0,0,0,14,20.9h-2.3Z"/><path class="cls-1" d="M28.77,66.44,0,49.83V16.61L28.77,0,57.53,16.61V49.83ZM2,48.67,28.77,64.13,55.53,48.67V17.76L28.77,2.31,2,17.76Z"/></g></g></svg>