<?xml version="1.0" encoding="utf-8"?>
<!-- Generator: Adobe Illustrator 25.0.1, SVG Export Plug-In . SVG Version: 6.00 Build 0)  -->
<svg version="1.1" id="圖層_1" xmlns="http://www.w3.org/2000/svg" xmlns:xlink="http://www.w3.org/1999/xlink" x="0px" y="0px"
	 viewBox="0 0 967.5 1117.1" style="enable-background:new 0 0 967.5 1117.1;" xml:space="preserve">
<style type="text/css">
	.st0{opacity:0.1;}
	.st1{fill:#FFFFFF;}
</style>
<g id="圖層_2_1_" class="st0">
	<g id="圖層_2-2">
		<path class="st1" d="M197.2,328.5h151.3l135.8,358.9l125-358.9h154.8v23h-37.8c-13.3,0-22.3,1.9-26.9,5.8
			c-4.6,3.9-6.9,10.7-6.9,20.3v359.9c0,7.2,2.8,12.7,8.3,16.6c5.5,3.9,15.1,5.8,28.6,5.8h34.7V783h-208v-23.1H595
			c11.1,0,19.3-2.1,24.7-6.3c5.1-3.8,8.1-9.8,8-16.1v-386L477.4,783h-20.7L294.9,353.4v330.3c0,19.7,2.5,34.4,7.4,44.1
			c4.6,9.4,11.9,17.2,21,22.4c9.1,5.2,24.2,8.4,45.3,9.7V783H197.2v-23.1c28.1-1.8,47.1-7.9,57.2-18.1c10-10.2,15.1-28.4,15.1-54.4
			V374c0-7.8-2.4-13.5-7.1-17c-4.7-3.6-13.5-5.4-26.4-5.4h-38.7V328.5z"/>
		<path class="st1" d="M483.7,1117.1L0,837.8V279.3L483.7,0l483.7,279.3v558.6L483.7,1117.1z M33.6,818.4l450.1,259.9l450.1-259.9
			V298.7L483.7,38.8L33.6,298.7V818.4z"/>
	</g>
</g>
</svg>
