<svg xmlns="http://www.w3.org/2000/svg" width="154.303" height="49.828" viewBox="0 0 154.303 49.828">
  <path id="Path_3612" data-name="Path 3612" d="M3203.585-542.633c-.088,6.942,6.186,10.815,10.913,13.117,4.856,2.363,6.487,3.878,6.467,5.991-.037,3.235-3.873,4.662-7.463,4.717a26.039,26.039,0,0,1-12.8-3.044l-2.258,10.56c2.905,1.339,8.286,2.506,13.864,2.557,13.094,0,21.662-6.464,21.708-16.486.051-12.719-17.593-13.423-17.473-19.108.042-1.723,1.686-3.563,5.292-4.031a23.463,23.463,0,0,1,12.292,2.154l2.191-10.217a33.405,33.405,0,0,0-11.666-2.141c-12.325,0-20.993,6.553-21.065,15.93m53.792-15.049a5.684,5.684,0,0,0-5.307,3.535l-18.7,44.662h13.085l2.6-7.2h15.99l1.51,7.2h11.534l-10.064-48.2h-10.646m1.829,13.02,3.777,18.1h-10.341l6.564-18.1m-71.484-13.02-10.315,48.2h12.469l10.31-48.2h-12.465m-18.446,0L3156.3-524.878l-5.251-27.894a5.811,5.811,0,0,0-5.748-4.911H3124.08l-.3,1.4a51.918,51.918,0,0,1,12.3,4.1c1.835,1,2.359,1.868,2.96,4.235l9.944,38.463h13.177l20.2-48.2h-13.092" transform="translate(-3123.784 558.563)" fill="#15195a"/>
</svg>
